<svg width="28" height="24" viewBox="0 0 28 24" fill="none" xmlns="http://www.w3.org/2000/svg">
<path fill-rule="evenodd" clip-rule="evenodd" d="M24.6667 8V21.3333C24.6667 22.8061 23.4728 24 22.0001 24H6.00008C4.52732 24 3.33341 22.8061 3.33341 21.3333V8C1.86066 8 0.666748 6.80609 0.666748 5.33333V2.66667C0.666748 1.19391 1.86066 0 3.33341 0H24.6667C26.1395 0 27.3334 1.19391 27.3334 2.66667V5.33333C27.3334 6.80609 26.1395 8 24.6667 8ZM6.00008 8V21.3333H22.0001V8H6.00008ZM10.0001 12V9.33333H18.0001V12H10.0001ZM3.33341 2.66667V5.33333H24.6667V2.66667H3.33341Z" fill="#646363"/>
</svg>
