<svg width="30" height="24" viewBox="0 0 30 24" fill="none" xmlns="http://www.w3.org/2000/svg">
<path fill-rule="evenodd" clip-rule="evenodd" d="M8.24952 3.79383C8.34399 3.66251 8.4489 3.50174 8.58269 3.28496C8.65766 3.16348 8.93119 2.71102 8.9759 2.63788C10.0812 0.82985 10.8847 0 12.3335 0H17.6668C19.1156 0 19.9191 0.82985 21.0244 2.63788C21.0691 2.71102 21.3427 3.16348 21.4176 3.28496C21.5514 3.50174 21.6563 3.66251 21.7508 3.79383C21.8131 3.88044 21.8675 3.94925 21.9119 4H25.6668C27.876 4 29.6668 5.79086 29.6668 8V20C29.6668 22.2091 27.876 24 25.6668 24H4.3335C2.12436 24 0.333496 22.2091 0.333496 20V8C0.333496 5.79086 2.12436 4 4.3335 4H8.08842C8.13281 3.94925 8.18723 3.88044 8.24952 3.79383ZM4.3335 6.66667C3.59712 6.66667 3.00016 7.26362 3.00016 8V20C3.00016 20.7364 3.59712 21.3333 4.3335 21.3333H25.6668C26.4032 21.3333 27.0002 20.7364 27.0002 20V8C27.0002 7.26362 26.4032 6.66667 25.6668 6.66667H21.6668C20.781 6.66667 20.1837 6.18188 19.586 5.35101C19.4485 5.15984 19.3123 4.95109 19.1483 4.68545C19.0655 4.55131 18.7879 4.09211 18.7492 4.02878C18.1462 3.0423 17.7825 2.66667 17.6668 2.66667H12.3335C12.2179 2.66667 11.8542 3.0423 11.2511 4.02878C11.2124 4.09211 10.9348 4.55131 10.852 4.68545C10.6881 4.95109 10.5518 5.15984 10.4143 5.35101C9.81665 6.18188 9.21929 6.66667 8.3335 6.66667H4.3335ZM24.3335 10.6667C25.0699 10.6667 25.6668 10.0697 25.6668 9.33333C25.6668 8.59695 25.0699 8 24.3335 8C23.5971 8 23.0002 8.59695 23.0002 9.33333C23.0002 10.0697 23.5971 10.6667 24.3335 10.6667ZM15.0002 20C11.3183 20 8.3335 17.0152 8.3335 13.3333C8.3335 9.65144 11.3183 6.66667 15.0002 6.66667C18.6821 6.66667 21.6668 9.65144 21.6668 13.3333C21.6668 17.0152 18.6821 20 15.0002 20ZM15.0002 17.3333C17.2093 17.3333 19.0002 15.5425 19.0002 13.3333C19.0002 11.1242 17.2093 9.33333 15.0002 9.33333C12.791 9.33333 11.0002 11.1242 11.0002 13.3333C11.0002 15.5425 12.791 17.3333 15.0002 17.3333Z" fill="#646363"/>
</svg>
