<svg width="30" height="30" viewBox="0 0 30 30" fill="none" xmlns="http://www.w3.org/2000/svg">
<path fill-rule="evenodd" clip-rule="evenodd" d="M14.9999 29.6666C6.89974 29.6666 0.333252 23.1001 0.333252 14.9999C0.333252 6.89974 6.89974 0.333252 14.9999 0.333252C23.1001 0.333252 29.6666 6.89974 29.6666 14.9999C29.6666 23.1001 23.1001 29.6666 14.9999 29.6666ZM14.9999 26.9999C21.6273 26.9999 26.9999 21.6273 26.9999 14.9999C26.9999 8.3725 21.6273 2.99992 14.9999 2.99992C8.3725 2.99992 2.99992 8.3725 2.99992 14.9999C2.99992 21.6273 8.3725 26.9999 14.9999 26.9999ZM9.10885 22.918L10.2339 16.3582L5.46797 11.7126L12.0544 10.7555L14.9999 4.78719L17.9454 10.7555L24.5319 11.7126L19.7659 16.3582L20.891 22.918L14.9999 19.8209L9.10885 22.918ZM14.9999 16.8082L17.3493 18.0433L16.9006 15.4272L18.8013 13.5745L16.1746 13.1928L14.9999 10.8127L13.8252 13.1928L11.1985 13.5745L13.0992 15.4272L12.6505 18.0433L14.9999 16.8082Z" fill="#646363"/>
</svg>
