<svg width="30" height="21" viewBox="0 0 30 21" fill="none" xmlns="http://www.w3.org/2000/svg">
<path fill-rule="evenodd" clip-rule="evenodd" d="M25.439 15.3334H26.9999V10.7137L23.299 8.24641L20.8425 3.33342H2.99992V15.3334H4.56086C5.10997 13.7798 6.59163 12.6667 8.33325 12.6667C10.0749 12.6667 11.5565 13.7798 12.1056 15.3334H17.8942C18.4433 13.7798 19.925 12.6667 21.6666 12.6667C23.4082 12.6667 24.8899 13.7798 25.439 15.3334ZM25.439 18.0001C24.8899 19.5537 23.4082 20.6667 21.6666 20.6667C19.925 20.6667 18.4433 19.5537 17.8942 18.0001H12.1056C11.5565 19.5537 10.0749 20.6667 8.33325 20.6667C6.59163 20.6667 5.10997 19.5537 4.56086 18.0001H2.99992C1.52716 18.0001 0.333252 16.8062 0.333252 15.3334V3.33342C0.333252 1.86066 1.52716 0.666748 2.99992 0.666748H20.8425C21.8526 0.666748 22.776 1.23742 23.2277 2.14085L25.3675 6.42043L29.6666 9.2865V15.3334C29.6666 16.8062 28.4727 18.0001 26.9999 18.0001H25.439ZM8.33325 18.0001C9.06963 18.0001 9.66658 17.4031 9.66658 16.6667C9.66658 15.9304 9.06963 15.3334 8.33325 15.3334C7.59687 15.3334 6.99992 15.9304 6.99992 16.6667C6.99992 17.4031 7.59687 18.0001 8.33325 18.0001ZM21.6666 18.0001C22.403 18.0001 22.9999 17.4031 22.9999 16.6667C22.9999 15.9304 22.403 15.3334 21.6666 15.3334C20.9302 15.3334 20.3332 15.9304 20.3332 16.6667C20.3332 17.4031 20.9302 18.0001 21.6666 18.0001Z" fill="#646363"/>
</svg>
