<svg width="639" height="698" viewBox="0 0 639 698" fill="none" xmlns="http://www.w3.org/2000/svg">
<path d="M639 78L535.373 126L501.246 117L473.595 153L443.104 198.085L430.501 204.5L416.551 198.085H377.633L357.542 212.391L336.34 221.928L326.625 247.939L303.956 263.112L280.292 280.886L268.085 304L259.616 305.5L249.154 306.5L234.208 343H221.254H208.301H194.6L176.49 364.987L147.418 381.894L136.781 376.258H128.982L74.3823 425.245L57.8371 447.787L34.201 450.388L18.3649 459.059L-25.5982 472.497L-87.5246 493.306L-164.108 521.484L-208.698 533.5L-252.291 569.5L-333 589.5" stroke="#50CE61" stroke-width="4" stroke-linecap="round"/>
<path d="M-25.5982 472.497L-87.5246 493.306L-164.108 521.484L-208.698 533.5L-252.291 569.5L-333 589.5V697.5H639V78L535.373 126L501.246 117L473.595 153L443.104 198.085L430.501 204.5L416.551 198.085H377.633L357.542 212.391L336.34 221.928L326.625 247.939L303.956 263.112L280.292 280.886L268.085 304L259.616 305.5L249.154 306.5L234.208 343H221.254H208.301H194.6L176.49 364.987L147.418 381.894L136.781 376.258H128.982L74.3823 425.245L57.837 447.787L34.201 450.388L18.3649 459.059L-25.5982 472.497Z" fill="url(#paint0_linear_994_257)"/>
<circle cx="320" cy="251" r="251" fill="#50CE61"/>
<defs>
<linearGradient id="paint0_linear_994_257" x1="113.579" y1="78" x2="113.579" y2="697.5" gradientUnits="userSpaceOnUse">
<stop stop-color="#50CE61" stop-opacity="0.6"/>
<stop offset="1" stop-color="#50CE61" stop-opacity="0"/>
</linearGradient>
</defs>
</svg>
